<svg width="24" height="24" viewBox="0 0 24 24" fill="none" xmlns="http://www.w3.org/2000/svg">
  <path d="M11 22C10.7348 22 10.4804 21.8946 10.2929 21.7071C10.1054 21.5196 10 21.2652 10 21V19H14V21C14 21.2652 13.8946 21.5196 13.7071 21.7071C13.5196 21.8946 13.2652 22 13 22H11ZM20 17V11C20 6.02944 15.9706 2 11 2C6.02944 2 2 6.02944 2 11V17L1 18V19H23V18L22 17V11C22 6.02944 17.9706 2 13 2C8.02944 2 4 6.02944 4 11V16H6V11C6 7.68629 8.68629 5 12 5C15.3137 5 18 7.68629 18 11V16H20V17Z" fill="#637381"/>
</svg>
